<svg xmlns="http://www.w3.org/2000/svg"  viewBox="0 0 80 80" width="16px" height="16px" baseProfile="basic"><path fill="#fff" d="M64.873,27.894c1.789-13.779-1.565-17.744-3.202-18.097c-5.314-1.147-12.95,4.211-16.006,6.485 c-2.479-0.525-5.053-0.834-7.704-0.834c-4.899,0-9.472,0.98-13.537,2.672c-2.531-1.281-8.4-3.887-12.925-3.09 c-1.001,0.176-6.107,5.428-1.439,15.659c-1.781,3.323-2.795,7-2.795,10.874c0,14.307,12.067,21.933,31.543,21.937 c18.63,0.003,30.908-7.629,30.908-21.937C69.716,36.564,67.914,31.886,64.873,27.894z"/><path fill="#788b9c" d="M38.821,64c-0.005,0-0.009,0-0.014,0C18.443,63.996,6.765,55.818,6.765,41.563 c0-3.759,0.921-7.422,2.737-10.892C6.435,23.786,7.8,19.279,8.897,17.194c0.833-1.585,1.917-2.551,2.514-2.655 c4.439-0.786,9.989,1.513,13.032,3.032c6.483-2.649,13.594-3.369,21.104-1.824c6.811-5.036,12.425-7.264,16.229-6.438 c2.162,0.467,5.343,4.881,3.618,18.446c3.155,4.207,4.821,8.978,4.821,13.809c0,7.065-3.004,12.857-8.686,16.748 C56.095,62.033,48.241,64,38.821,64z M13.297,15.383c-0.587,0-1.161,0.044-1.712,0.141c-0.199,0.055-1.18,0.788-1.981,2.494 c-0.905,1.926-1.99,6.106,0.91,12.464l0.103,0.226l-0.117,0.219c-1.814,3.387-2.734,6.966-2.734,10.638 c0,13.619,11.314,21.433,31.043,21.437c0.005,0,0.01,0,0.014,0c9.219,0,16.875-1.906,22.144-5.514 c5.475-3.749,8.251-9.105,8.251-15.923c0-4.674-1.64-9.296-4.74-13.367l-0.125-0.163l0.026-0.204 c1.746-13.447-1.527-17.266-2.812-17.544c-3.557-0.759-8.949,1.446-15.602,6.398l-0.182,0.135l-0.221-0.047 c-7.47-1.58-14.532-0.861-20.946,1.811l-0.213,0.088l-0.205-0.104C22.166,17.538,17.412,15.383,13.297,15.383z"/><path fill="#788b9c" d="M1.243,47.544l-0.236-0.973c6.979-1.69,11.593-1.493,11.785-1.484l-0.047,0.998	C12.699,46.085,8.065,45.89,1.243,47.544z"/><path fill="#788b9c" d="M4.993,54.676l-0.54-0.842c0.125-0.08,3.112-1.971,8.859-3.034l0.182,0.982	C7.96,52.808,5.022,54.657,4.993,54.676z"/><path fill="#788b9c" d="M8.268,62.649l-0.736-0.677c0.098-0.106,2.474-2.649,9.671-6.249l0.447,0.895	C10.651,60.118,8.29,62.624,8.268,62.649z"/><path fill="#ffb5d2" d="M52.568,18.489c0,0-1.694-8.256-8.256-9.103c0,0-4.022-0.635-7.198,7.833 c0,0-2.54,7.833,2.54,10.162c0,0,3.387,1.27,9.738-1.905L52.568,18.489z"/><path fill="#ea4c89" d="M41.627,28.133c-1.355,0-2.083-0.261-2.148-0.285c-5.456-2.498-2.949-10.446-2.84-10.783 c3.289-8.773,7.567-8.201,7.751-8.173c6.824,0.881,8.597,9.146,8.669,9.497l0.032,0.159l-3.316,7.295l-0.158,0.079 C46.015,27.723,43.327,28.133,41.627,28.133z M39.862,26.926c0.007,0,3.222,1.096,9.148-1.82l3.032-6.669 c-0.271-1.106-2.147-7.826-7.796-8.555c-0.044-0.009-3.7-0.396-6.665,7.513C37.566,17.447,35.248,24.811,39.862,26.926 L39.862,26.926z"/><path fill="#ffb5d2" d="M56.59,20.606c0,0,6.986-3.387,10.162-0.635c3.175,2.752,2.329,6.986,0,10.373 c-1.564,2.275-3.811,4.022-6.351,3.811c-2.54-0.212-5.081-1.905-6.563-5.928L56.59,20.606z"/><path fill="#66798f" d="M60.804,34.671c-0.148,0-0.297-0.006-0.445-0.019c-1.805-0.149-5.113-1.161-6.989-6.253 l-0.063-0.171l2.883-7.984l0.184-0.089c0.297-0.145,7.321-3.498,10.707-0.563c3.544,3.071,2.367,7.714,0.085,11.034 C65.382,33.219,63.086,34.671,60.804,34.671z M54.371,28.224c1.258,3.284,3.408,5.211,6.07,5.433 c2.058,0.163,4.211-1.141,5.898-3.596c2.038-2.964,3.13-7.072,0.085-9.712c-2.62-2.269-8.344,0.133-9.436,0.623L54.371,28.224z"/><path fill="#788b9c" d="M65,40.77l-0.307-0.951c0.271-0.088,6.736-2.145,12.505-1.289l-0.146,0.988	C71.513,38.702,65.064,40.749,65,40.77z"/><path fill="#788b9c" d="M75.35,47.138c-3.727-0.621-8.55-0.628-8.598-0.628v-1c0.049,0,4.954,0.008,8.762,0.642L75.35,47.138	z"/><path fill="#788b9c" d="M73.923,55.764c-4.942-2.677-9.729-3.324-9.776-3.33l0.129-0.992	c0.203,0.026,5.02,0.679,10.124,3.443L73.923,55.764z"/><ellipse cx="23.522" cy="46.493" fill="#788b9c" rx="2.478" ry="3.493"/><ellipse cx="54.5" cy="44.507" fill="#788b9c" rx="2.5" ry="3.493"/><ellipse cx="39.506" cy="51.499" fill="#f5ce85" rx="4.008" ry="3.002" transform="rotate(-2.987 39.543 51.545)"/><path fill="#967a44" d="M39.378,55.005c-1.063,0-2.072-0.288-2.869-0.822c-0.92-0.617-1.454-1.486-1.504-2.448 c-0.101-1.928,1.837-3.603,4.318-3.732c2.49-0.14,4.584,1.334,4.685,3.262c0.101,1.929-1.837,3.604-4.318,3.732l0,0 C39.585,55.002,39.48,55.005,39.378,55.005z M39.634,48.993c-0.086,0-0.172,0.003-0.258,0.007 c-1.932,0.102-3.444,1.305-3.373,2.682c0.034,0.641,0.411,1.233,1.063,1.67c0.697,0.468,1.61,0.687,2.571,0.646l0,0 c1.932-0.101,3.444-1.304,3.373-2.682C42.94,50,41.45,48.993,39.634,48.993z"/><path fill="#ea4c89" d="M47.063,23.858c-1.91,0-3.464-1.554-3.464-3.464s1.554-3.464,3.464-3.464	c1.208,0,2.346,0.644,2.97,1.679l-0.857,0.516c-0.45-0.748-1.239-1.194-2.112-1.194c-1.358,0-2.464,1.105-2.464,2.464	s1.105,2.464,2.464,2.464V23.858z"/><path fill="#ea4c89" d="M59.024,29.144c-0.526,0-1.43-0.315-1.785-0.469l0.395-0.918c0.367,0.157,1.091,0.387,1.391,0.387	c2.052,0,2.358-1.412,2.358-2.254c0-1.243-1.058-2.254-2.358-2.254v-1c1.852,0,3.358,1.46,3.358,3.254	C62.383,27.896,61.096,29.144,59.024,29.144z"/><path fill="#ea4c89" d="M41.768,28.132c-1.344,0-2.064-0.263-2.122-0.284c-5.384-2.5-2.912-10.444-2.805-10.781	c3.245-8.772,7.479-8.197,7.656-8.175c5.321,0.696,7.551,6.102,8.262,8.394l-0.955,0.297c-0.654-2.108-2.688-7.078-7.45-7.7	c-0.053-0.017-3.645-0.391-6.567,7.511c-0.016,0.053-2.304,7.42,2.248,9.534l0,0c0.004,0,2.576,0.886,7.329-1.054l0.377,0.926	C45.135,27.862,43.131,28.132,41.768,28.132z"/><path fill="#ea4c89" d="M60.804,34.671c-0.148,0-0.297-0.006-0.445-0.019c-2.642-0.22-4.891-1.901-6.331-4.735l0.891-0.453	c1.638,3.222,3.908,4.058,5.523,4.192c2.058,0.163,4.211-1.141,5.898-3.596c2.038-2.964,3.13-7.072,0.085-9.712	c-2.181-1.89-6.591-0.497-8.386,0.188l-0.357-0.934c2.439-0.934,6.903-2.172,9.397-0.011c3.544,3.071,2.367,7.714,0.085,11.034	C65.382,33.219,63.086,34.671,60.804,34.671z"/><path fill="#788b9c" d="M9.418,33.369l-0.92-0.395c1.287-3.002,3.41-5.451,3.5-5.554l0.754,0.658	C12.73,28.103,10.641,30.517,9.418,33.369z"/><circle cx="52.991" cy="23.781" r="5.928" fill="#ffb5d2"/><path fill="#ea4c89" d="M52.991,30.209c-3.544,0-6.428-2.884-6.428-6.428s2.884-6.428,6.428-6.428	c3.297,0,6.045,2.469,6.392,5.743c0.023,0.227,0.036,0.454,0.036,0.685C59.419,27.325,56.535,30.209,52.991,30.209z M52.991,18.354	c-2.993,0-5.428,2.435-5.428,5.428s2.435,5.428,5.428,5.428s5.428-2.435,5.428-5.428c0-0.195-0.011-0.39-0.03-0.58	C58.096,20.438,55.775,18.354,52.991,18.354z"/></svg>